<svg xmlns="http://www.w3.org/2000/svg" width="960" height="540" viewBox="0 0 960 540" role="img" aria-label="Ossuary title screen"> <defs> <linearGradient id="sky" x1="0" y1="0" x2="0" y2="1"> <stop offset="0%" stop-color="#071018"/> <stop offset="55%" stop-color="#0b1a22"/> <stop offset="100%" stop-color="#1a1410"/> </linearGradient> <radialGradient id="moonG" cx="50%" cy="50%" r="50%"> <stop offset="0%" stop-color="#f4efe2"/> <stop offset="70%" stop-color="#c9b48a"/> <stop offset="100%" stop-color="#7a6a48"/> </radialGradient> <radialGradient id="soul" cx="50%" cy="40%" r="60%"> <stop offset="0%" stop-color="#e8fffb"/> <stop offset="40%" stop-color="#5eead4"/> <stop offset="100%" stop-color="#0f766e"/> </radialGradient> <linearGradient id="bone" x1="0" y1="0" x2="1" y2="1"> <stop offset="0%" stop-color="#f3e6c8"/> <stop offset="50%" stop-color="#d9c39a"/> <stop offset="100%" stop-color="#8d7350"/> </linearGradient> <linearGradient id="fog" x1="0" y1="0" x2="0" y2="1"> <stop offset="0%" stop-color="#9aa7a4" stop-opacity="0"/> <stop offset="100%" stop-color="#6d7a72" stop-opacity="0.35"/> </linearGradient> </defs> <rect width="960" height="540" fill="url(#sky)"/> <circle cx="120" cy="40" r="1.2" fill="#d7eee8" opacity="0.7"/> <circle cx="210" cy="70" r="1" fill="#d7eee8" opacity="0.5"/> <circle cx="340" cy="28" r="1.4" fill="#d7eee8" opacity="0.8"/> <circle cx="480" cy="54" r="1" fill="#d7eee8" opacity="0.45"/> <circle cx="620" cy="22" r="1.2" fill="#d7eee8" opacity="0.7"/> <circle cx="740" cy="64" r="1" fill="#d7eee8" opacity="0.5"/> <circle cx="860" cy="36" r="1.3" fill="#d7eee8" opacity="0.75"/> <circle cx="790" cy="92" r="38" fill="url(#moonG)"/> <circle cx="778" cy="84" r="30" fill="#071018" opacity="0.18"/> <ellipse cx="480" cy="500" rx="520" ry="90" fill="#12100c"/> <path d="M0 430 C 80 410 140 450 220 430 C 300 410 340 460 430 440 C 520 420 580 470 680 445 C 760 425 840 460 960 430 L 960 540 L 0 540 Z" fill="#1b1814"/> <path d="M0 470 C 120 455 200 490 320 472 C 430 456 520 498 640 478 C 760 458 860 495 960 470 L 960 540 L 0 540 Z" fill="#14110e"/> <rect x="70" y="400" width="46" height="70" rx="3" fill="#2a2c28"/> <polygon points="70,400 93,378 116,400" fill="#353730"/> <rect x="78" y="422" width="12" height="16" fill="#111"/> <rect x="96" y="422" width="12" height="16" fill="#111"/> <rect x="170" y="412" width="38" height="58" rx="2" fill="#32342f"/> <polygon points="170,412 189,394 208,412" fill="#3d4038"/> <rect x="820" y="408" width="42" height="64" rx="2" fill="#2c2e29"/> <polygon points="820,408 841,388 862,408" fill="#393c34"/> <path d="M40 430 L48 300 L55 430" fill="#1a1612"/> <path d="M48 318 C 20 300 18 270 48 280 C 78 270 76 300 48 318" fill="#14110c"/> <path d="M900 435 L910 280 L922 435" fill="#1a1612"/> <path d="M910 300 C 880 282 876 250 910 262 C 944 250 940 282 910 300" fill="#14110c"/> <g transform="translate(488 268)"> <ellipse cx="0" cy="196" rx="48" ry="10" fill="#000" opacity="0.45"/> <rect x="-7" y="18" width="14" height="52" rx="4" fill="url(#bone)"/> <rect x="-22" y="28" width="44" height="8" rx="3" fill="url(#bone)"/> <rect x="-26" y="40" width="52" height="6" rx="2" fill="#cbb48a"/> <rect x="-24" y="50" width="48" height="5" rx="2" fill="#cbb48a"/> <rect x="-20" y="59" width="40" height="5" rx="2" fill="#cbb48a"/> <circle cx="0" cy="0" r="22" fill="url(#bone)"/> <ellipse cx="-8" cy="-2" rx="6" ry="7" fill="#111"/> <ellipse cx="8" cy="-2" rx="6" ry="7" fill="#111"/> <circle cx="-8" cy="-2" r="3.2" fill="url(#soul)"/> <circle cx="8" cy="-2" r="3.2" fill="url(#soul)"/> <path d="M-10 10 Q 0 16 10 10" fill="none" stroke="#5c4630" stroke-width="1.4"/> <rect x="-28" y="22" width="18" height="7" rx="3" fill="url(#bone)"/> <rect x="10" y="22" width="18" height="7" rx="3" fill="url(#bone)"/> <rect x="-40" y="26" width="14" height="48" rx="5" fill="url(#bone)" transform="rotate(18 -33 50)"/> <rect x="26" y="26" width="14" height="48" rx="5" fill="url(#bone)" transform="rotate(-8 33 50)"/> <rect x="-16" y="68" width="12" height="50" rx="5" fill="url(#bone)"/> <rect x="4" y="68" width="12" height="50" rx="5" fill="url(#bone)"/> <ellipse cx="-10" cy="122" rx="10" ry="5" fill="#cbb48a"/> <ellipse cx="10" cy="122" rx="10" ry="5" fill="#cbb48a"/> <g transform="rotate(-18 40 10)"> <rect x="28" y="-70" width="5" height="150" rx="2" fill="#6b7280"/> <path d="M18 -78 C 8 -50 22 -20 31 -8 L 36 -70 Z" fill="#9ca3af"/> <circle cx="30.5" cy="-72" r="4" fill="#5eead4" opacity="0.8"/> </g> </g> <circle cx="470" cy="266" r="18" fill="#5eead4" opacity="0.12"/> <circle cx="506" cy="266" r="18" fill="#5eead4" opacity="0.12"/> <rect x="0" y="0" width="960" height="540" fill="url(#fog)"/> <text x="480" y="58" text-anchor="middle" font-family="Georgia, 'Times New Roman', serif" font-size="44" font-weight="700" fill="#e7d7a5" letter-spacing="8">OSSUARY</text> <text x="480" y="84" text-anchor="middle" font-family="Georgia, 'Times New Roman', serif" font-size="13" fill="#7d9b96" letter-spacing="6">AWAKE THE BONES</text> <rect x="36" y="120" width="248" height="318" rx="16" fill="#0d1110" fill-opacity="0.78" stroke="#3a4a46" stroke-opacity="0.5"/> <text x="56" y="150" font-family="Georgia, serif" font-size="11" fill="#8aa09c">NAME</text> <rect x="56" y="158" width="208" height="28" rx="6" fill="#141a19" stroke="#4fd1c5" stroke-opacity="0.35"/> <text x="68" y="177" font-family="Georgia, serif" font-size="13" fill="#e7d7a5">Marrow</text> <text x="56" y="210" font-family="Georgia, serif" font-size="11" fill="#8aa09c">SOUL-FIRE</text> <circle cx="70" cy="230" r="9" fill="#5eead4"/> <circle cx="96" cy="230" r="9" fill="#67e8f9"/> <circle cx="122" cy="230" r="9" fill="#c4b5fd"/> <circle cx="148" cy="230" r="9" fill="#fca5a5"/> <circle cx="174" cy="230" r="9" fill="#86efac"/> <circle cx="70" cy="230" r="12" fill="none" stroke="#e7d7a5" stroke-width="1.5"/> <text x="56" y="268" font-family="Georgia, serif" font-size="11" fill="#8aa09c">WEAPON</text> <rect x="56" y="276" width="208" height="26" rx="6" fill="#1a2220" stroke="#5eead4" stroke-opacity="0.4"/> <text x="160" y="294" text-anchor="middle" font-family="Georgia, serif" font-size="12" fill="#e7d7a5">Grave Scythe</text> <text x="56" y="326" font-family="Georgia, serif" font-size="11" fill="#8aa09c">ARMOR</text> <rect x="56" y="334" width="208" height="26" rx="6" fill="#1a2220" stroke="#5eead4" stroke-opacity="0.4"/> <text x="160" y="352" text-anchor="middle" font-family="Georgia, serif" font-size="12" fill="#e7d7a5">Boneplate</text> <rect x="56" y="382" width="208" height="36" rx="8" fill="#134e4a"/> <text x="160" y="405" text-anchor="middle" font-family="Georgia, serif" font-size="13" font-weight="700" fill="#ecfdf5" letter-spacing="1.5">DESCEND INTO THE CRYPT</text> </svg>
