<svg xmlns="http://www.w3.org/2000/svg" viewBox="0 0 32 32">
  <rect width="32" height="32" rx="7" fill="#0b0a09"/>
  <path fill="#e8dcc4" d="M8 13.5c0-5 3.4-9 8-9s8 4 8 9c0 2.1-.6 3.8-1.6 5.2v4.6c0 1.4-1.4 2.4-3.2 2.4h-6.4c-1.8 0-3.2-1-3.2-2.4v-4.6C8.6 17.3 8 15.6 8 13.5z"/>
  <ellipse cx="12.4" cy="13.2" rx="2.6" ry="3.1" fill="#0b0a09"/>
  <ellipse cx="19.6" cy="13.2" rx="2.6" ry="3.1" fill="#0b0a09"/>
  <circle cx="12.4" cy="13.5" r="1.2" fill="#6fbfa3"/>
  <circle cx="19.6" cy="13.5" r="1.2" fill="#6fbfa3"/>
  <path d="M16 15.4 L14.1 19.6 H17.9 Z" fill="#0b0a09"/>
</svg>
